<svg width='24' height='24' viewBox='0 0 24 24' xmlns='http://www.w3.org/2000/svg' xmlns:xlink='http://www.w3.org/1999/xlink'><rect width='24' height='24' stroke='none' fill='#000000' opacity='0'/>


<g transform="matrix(0.43 0 0 0.43 12 12)" >
<path style="stroke: none; stroke-width: 1; stroke-dasharray: none; stroke-linecap: butt; stroke-dashoffset: 0; stroke-linejoin: miter; stroke-miterlimit: 4; fill: rgb(0,0,0); fill-rule: nonzero; opacity: 1;" transform=" translate(-23.5, -24.01)" d="M 9 1 C 6.2504839 1 4 3.2504839 4 6 L 4 19.410156 C 4 21.316669 4.668046 23.164383 5.8886719 24.628906 C 5.900661153946176 24.642917514458386 5.913035652003294 24.656594743948318 5.9257812 24.669922 L 15 34.392578 L 15 46 C 14.994899710454515 46.36063591657757 15.184375296169332 46.696081364571604 15.495872849714331 46.877887721486516 C 15.80737040325933 47.05969407840143 16.19262959674067 47.05969407840143 16.50412715028567 46.877887721486516 C 16.815624703830668 46.696081364571604 17.005100289545485 46.36063591657757 17 46 L 17 34.273438 C 17.06866671100015 33.99686730844437 17.016089271804862 33.70413817496311 16.855469 33.46875 C 16.79475173698739 33.36798841521909 16.71673288674198 33.27872961563256 16.625 33.205078 L 7.4257812 23.347656 L 7.4238281 23.34375 C 6.5042516 22.23881 6 20.848168 6 19.410156 L 6 6 C 6 4.3315161 7.3315161 3 9 3 C 10.668484 3 12 4.3315161 12 6 L 12 18.863281 C 11.98165315705939 19.009070477118794 11.995657184563761 19.15711178543093 12.041016 19.296875 C 12.04808917429435 19.318620959649934 12.055906102556897 19.340117929283668 12.064453 19.361328 C 12.069950301540278 19.376441151780483 12.075811339341717 19.391419507686514 12.082031 19.40625 C 12.149977374105623 19.566026480666142 12.258349052103968 19.70536159370274 12.396484 19.810547 L 21.193359 28.607422 C 21.28317434404762 28.724849330436836 21.397906471362184 28.820903991735115 21.529297 28.888672 C 21.54280104025113 28.896148891149746 21.556476370818903 28.90331214366512 21.570312 28.910156 C 21.758926501805288 29.003468628857938 21.97216911179845 29.034908280324725 22.179688 29 L 34.46875 29 C 36.554518 29 38.116752 29.807078 39.234375 31.140625 C 40.351998 32.474172 41 34.374741 41 36.53125 L 41 46 C 40.99489971045452 46.36063591657757 41.184375296169335 46.696081364571604 41.49587284971433 46.877887721486516 C 41.80737040325933 47.05969407840143 42.19262959674067 47.05969407840143 42.50412715028567 46.877887721486516 C 42.81562470383067 46.696081364571604 43.00510028954548 46.36063591657757 43 46 L 43 36.53125 C 43 33.975759 42.237956 31.611875 40.767578 29.857422 C 39.297201 28.102968 37.094982 27 34.46875 27 L 22.414062 27 L 14 18.585938 L 14 6 C 14 3.2504839 11.749516 1 9 1 z M 28.017578 5 C 22.506572 5 18.017578 9.4889982 18.017578 15 C 18.017578 20.511002 22.506572 25 28.017578 25 C 33.528584 25 38.017578 20.511002 38.017578 15 C 38.017578 9.4889982 33.528584 5 28.017578 5 z M 28.017578 7 C 32.447704 7 36.017578 10.569877 36.017578 15 C 36.017578 19.430123 32.447704 23 28.017578 23 C 23.587452 23 20.017578 19.430123 20.017578 15 C 20.017578 10.569877 23.587452 7 28.017578 7 z M 35.984375 36.986328 C 35.43285880343316 36.99494907306296 34.99244727987339 37.448468138368234 35 38 L 35 46 C 34.99489971045452 46.36063591657757 35.184375296169335 46.696081364571604 35.49587284971433 46.877887721486516 C 35.80737040325933 47.05969407840143 36.19262959674067 47.05969407840143 36.50412715028567 46.877887721486516 C 36.81562470383067 46.696081364571604 37.00510028954548 46.36063591657757 37 46 L 37 38 C 37.003701461010195 37.729699667173676 36.89782332475401 37.46941334607979 36.70649033286975 37.27844827870817 C 36.51515734098548 37.08748321133654 36.25466770753046 36.982106271031085 35.984375 36.986328 z" stroke-linecap="round" />
</g>
</svg>